<svg width="24" height="24" viewBox="0 0 24 24" fill="none" xmlns="http://www.w3.org/2000/svg">
<path d="M21 9.00001C19.9 9.00001 19 8.10001 19 7.00001C19 5.90001 21 3.00001 21 3.00001C21 3.00001 23 5.90001 23 7.00001C23 8.10001 22.1 9.00001 21 9.00001ZM17.5 7.00001C17.5 6.27001 17.91 5.29001 18.42 4.34001C16.62 2.82552 14.3423 1.99663 11.99 2.00001C6.47 2.00001 2 6.48001 2 12C2 17.52 6.47 22 11.99 22C17.52 22 22 17.52 22 12C22 11.45 21.94 10.91 21.86 10.38C21.5794 10.4556 21.2905 10.4959 21 10.5C19.07 10.5 17.5 8.93001 17.5 7.00001ZM15.62 7.38001L16.68 8.44001L15.62 9.50001L16.68 10.56L15.62 11.62L13.5 9.50001L15.62 7.38001ZM7.32 8.44001L8.38 7.38001L10.5 9.50001L8.38 11.62L7.32 10.56L8.38 9.50001L7.32 8.44001ZM15.44 17C14.75 15.81 13.47 15 12 15C10.53 15 9.25 15.81 8.56 17H6.88C7.18 16.24 7.64 15.57 8.22 15.01L5.24 13.3C4.79 13.56 4.23 13.58 3.75 13.3C3.41151 13.0979 3.16611 12.7708 3.0668 12.3893C2.96749 12.0078 3.02225 11.6026 3.21924 11.2611C3.41624 10.9197 3.73966 10.6694 4.11964 10.5644C4.49961 10.4594 4.90564 10.5081 5.25 10.7C5.73 10.98 5.99 11.48 5.99 11.99L9.57 14.06C10.3 13.7 11.12 13.5 12 13.5C14.33 13.5 16.32 14.95 17.12 17H15.44Z" fill="white"/>
</svg>
