<svg width="24" height="24" viewBox="0 0 24 24" fill="none" xmlns="http://www.w3.org/2000/svg">
<path d="M2.05 13H7.527C7.69812 16.1668 8.70755 19.2314 10.452 21.88C8.26694 21.5368 6.2572 20.4791 4.73702 18.8725C3.21684 17.2658 2.27192 15.2007 2.05 13ZM2.05 11C2.27192 8.7993 3.21684 6.73417 4.73702 5.12751C6.2572 3.52084 8.26694 2.46322 10.452 2.12C8.70755 4.76861 7.69812 7.83314 7.527 11H2.05ZM21.95 11H16.473C16.3019 7.83314 15.2925 4.76861 13.548 2.12C15.7331 2.46322 17.7428 3.52084 19.263 5.12751C20.7832 6.73417 21.7281 8.7993 21.95 11ZM21.95 13C21.7281 15.2007 20.7832 17.2658 19.263 18.8725C17.7428 20.4791 15.7331 21.5368 13.548 21.88C15.2925 19.2314 16.3019 16.1668 16.473 13H21.951H21.95ZM9.53 13H14.47C14.3054 15.6995 13.4553 18.3124 12 20.592C10.5447 18.3124 9.6946 15.6995 9.53 13ZM9.53 11C9.6946 8.30051 10.5447 5.68756 12 3.408C13.4553 5.68756 14.3054 8.30051 14.47 11H9.53Z" fill="white"/>
</svg>
