<svg width="24" height="24" viewBox="0 0 24 24" fill="none" xmlns="http://www.w3.org/2000/svg">
<path d="M10.5 13H9.5C8.67 13 8 12.33 8 11.5C8 10.67 8.67 10 9.5 10H10.5V9C10.5 8.17 11.17 7.5 12 7.5C12.83 7.5 13.5 8.17 13.5 9V10H14.5C15.33 10 16 10.67 16 11.5C16 12.33 15.33 13 14.5 13H13.5V14C13.5 14.83 12.83 15.5 12 15.5C11.17 15.5 10.5 14.83 10.5 14V13ZM11.3 2.26L5.3 4.51C4.52 4.81 4 5.55 4 6.39V11.09C4 16.14 7.41 20.85 12 22C16.59 20.85 20 16.14 20 11.09V6.39C19.9993 5.98306 19.8745 5.58602 19.6422 5.25189C19.4099 4.91776 19.0812 4.66243 18.7 4.52L12.7 2.27C12.25 2.09 11.75 2.09 11.3 2.26Z" fill="white"/>
</svg>
